<svg width="64" height="29" viewBox="0 0 64 29" fill="none" xmlns="http://www.w3.org/2000/svg">
<g clip-path="url(#clip0_88_742)">
<path d="M49.3977 0.399902V5.56139L51.6001 6.12426C52.3466 6.29593 52.3495 6.82784 52.0019 8.10837L48.9019 20.134H48.617L45.4828 10.7764L41.9668 21.9127L44.0211 28.7543H54.2385L61.3019 6.41132C61.3304 6.31462 61.3829 6.22644 61.4545 6.15472C61.5261 6.083 61.6146 6.02997 61.7121 6.00043L63.9916 5.56139V0.399902H49.3977Z" fill="black"/>
<path d="M16.9331 0.399902V5.56139L19.0045 6.12426C19.8593 6.35222 19.8593 6.78844 19.4063 8.10837L15.386 20.134H15.1011L11.9982 8.11118C11.6506 6.83066 11.6535 6.29875 12.4 6.12708L14.6024 5.56421V0.402715H0V5.56421L2.35349 6.01732C2.58428 6.0736 2.63841 6.18617 2.69825 6.41414L9.75871 28.7543H19.979L23.5377 16.9032L27.0993 28.7543H37.3167L44.3943 6.41132C44.4228 6.31462 44.4753 6.22644 44.5469 6.15472C44.6185 6.083 44.7071 6.02997 44.8046 6.00043L47.084 5.56139V0.399902H32.473V5.56139L34.6755 6.12426C35.422 6.29593 35.4277 6.82784 35.08 8.10837L31.9772 20.134H31.6923L27.672 8.11118C27.2275 6.79126 27.2133 6.35504 28.0737 6.12708L30.148 5.56421V0.402715L16.9331 0.399902Z" fill="black"/>
</g>
<defs>
<clipPath id="clip0_88_742">
<rect width="64" height="28.3544" fill="white" transform="translate(0 0.399902)"/>
</clipPath>
</defs>
</svg>
