<svg width="286" height="138" viewBox="0 0 286 138" fill="none" xmlns="http://www.w3.org/2000/svg">
<path d="M53.7743 85.208V83.1256L54.7739 82.9174C55.3015 82.8063 55.6763 82.6258 55.8984 82.3759C56.1206 82.126 56.2316 81.6679 56.2316 81.0015V60.5937C56.2316 60.0661 56.1344 59.7052 55.9401 59.5108C55.7735 59.3165 55.4542 59.1915 54.9822 59.136L53.7743 58.9694V56.887H65.8941C69.3648 56.887 72.0998 58.0809 74.0989 60.4687C76.098 62.8288 77.0976 66.4384 77.0976 71.2974C77.0976 73.713 76.695 75.9759 75.8898 78.0861C75.1123 80.1686 73.8212 81.8761 72.0165 83.2089C70.2394 84.5417 67.9349 85.208 65.1028 85.208H53.7743ZM65.1861 82.2926C67.5739 82.2926 69.5453 81.4319 71.1002 79.7104C72.6551 77.9889 73.4325 75.1846 73.4325 71.2974C73.4325 67.3546 72.7661 64.4531 71.4334 62.5928C70.1284 60.7325 68.157 59.8024 65.5193 59.8024H61.2711C60.6603 59.8024 60.2577 59.8995 60.0633 60.0939C59.8689 60.2883 59.7718 60.7186 59.7718 61.385V80.6683C59.7718 81.2237 59.8134 81.6124 59.8967 81.8345C59.98 82.0289 60.1049 82.1538 60.2715 82.2093C60.4659 82.2649 60.7991 82.2926 61.2711 82.2926H65.1861ZM79.6814 85.208V83.2089L80.8476 82.959C81.4029 82.8479 81.8055 82.6952 82.0554 82.5009C82.3053 82.2787 82.4997 81.9594 82.6385 81.543L90.2602 56.887H95.6329L102.796 81.543C102.935 81.9872 103.116 82.3065 103.338 82.5009C103.588 82.6952 103.976 82.8479 104.504 82.959L105.753 83.2089V85.208H96.0494V83.2089L97.757 82.9174C98.4233 82.7785 98.7565 82.4176 98.7565 81.8345C98.7565 81.418 98.4094 79.9603 97.7153 77.4614H87.7196C87.0532 79.7104 86.7201 81.1542 86.7201 81.7928C86.7201 82.1538 86.7895 82.4176 86.9283 82.5842C87.0671 82.7508 87.3031 82.8618 87.6363 82.9174L89.4272 83.2089V85.208H79.6814ZM92.6758 59.7607L88.2611 74.5876H97.2155L93.0923 59.7607H92.6758ZM110.734 85.208V83.1256L112.108 82.9174C112.608 82.8341 112.983 82.6675 113.233 82.4176C113.483 82.1399 113.608 81.6679 113.608 81.0015V63.4258C113.608 62.454 113.58 61.2462 113.525 59.8024H109.193C108.804 59.8024 108.499 59.8995 108.277 60.0939C108.082 60.2883 107.958 60.6353 107.902 61.1351L107.694 62.6345H105.236V56.887H125.519V62.6345H123.062L122.854 61.1351C122.798 60.6353 122.673 60.2883 122.479 60.0939C122.285 59.8995 121.979 59.8024 121.563 59.8024H117.231C117.176 61.2462 117.148 62.454 117.148 63.4258V81.0015C117.148 81.6679 117.273 82.1399 117.523 82.4176C117.773 82.6675 118.148 82.8341 118.647 82.9174L120.022 83.1256V85.208H110.734ZM124.991 85.208V83.2089L126.157 82.959C126.712 82.8479 127.115 82.6952 127.365 82.5009C127.614 82.2787 127.809 81.9594 127.948 81.543L135.569 56.887H140.942L148.106 81.543C148.244 81.9872 148.425 82.3065 148.647 82.5009C148.897 82.6952 149.286 82.8479 149.813 82.959L151.063 83.2089V85.208H141.359V83.2089L143.066 82.9174C143.733 82.7785 144.066 82.4176 144.066 81.8345C144.066 81.418 143.719 79.9603 143.024 77.4614H133.029C132.362 79.7104 132.029 81.1542 132.029 81.7928C132.029 82.1538 132.099 82.4176 132.237 82.5842C132.376 82.7508 132.612 82.8618 132.946 82.9174L134.736 83.2089V85.208H124.991ZM137.985 59.7607L133.57 74.5876H142.525L138.401 59.7607H137.985ZM164.073 85.208V83.1256L165.323 82.959C165.823 82.9035 166.184 82.7369 166.406 82.4592C166.628 82.1816 166.739 81.6957 166.739 81.0015V61.0935C166.739 60.3993 166.656 59.9273 166.489 59.6774C166.322 59.3998 165.975 59.2193 165.448 59.136L164.24 58.9694V56.887H182.274V62.4262H179.941L179.65 61.1351C179.539 60.6353 179.358 60.2883 179.108 60.0939C178.859 59.8995 178.387 59.8024 177.692 59.8024H171.57C170.987 59.8024 170.626 59.9273 170.487 60.1772C170.348 60.4271 170.279 60.9685 170.279 61.8015V70.4644L179.608 70.5477V73.0883L170.279 73.1716V81.0015C170.279 81.6957 170.39 82.1677 170.612 82.4176C170.862 82.6675 171.306 82.8341 171.945 82.9174L173.528 83.1256V85.208H164.073ZM197.647 85.6662C194.509 85.6662 191.885 84.8193 189.775 83.1256C187.693 81.4041 186.651 78.6414 186.651 74.8375V67.2991C186.651 63.5785 187.679 60.8436 189.733 59.0943C191.816 57.3173 194.454 56.4288 197.647 56.4288C200.895 56.4288 203.561 57.3173 205.643 59.0943C207.726 60.8436 208.767 63.5785 208.767 67.2991V74.8375C208.767 78.6414 207.698 81.4041 205.56 83.1256C203.45 84.8193 200.812 85.6662 197.647 85.6662ZM197.647 82.5425C200.007 82.5425 201.853 81.9317 203.186 80.71C204.546 79.4605 205.227 77.503 205.227 74.8375V67.0909C205.227 64.592 204.533 62.7178 203.144 61.4683C201.784 60.1911 199.951 59.5525 197.647 59.5525C195.37 59.5525 193.551 60.1911 192.191 61.4683C190.858 62.7455 190.192 64.6197 190.192 67.0909V74.8375C190.192 77.503 190.844 79.4605 192.149 80.71C193.482 81.9317 195.314 82.5425 197.647 82.5425ZM213.124 85.208V83.1256L214.374 82.959C214.874 82.9035 215.235 82.7369 215.457 82.4592C215.679 82.1816 215.79 81.6957 215.79 81.0015V61.0935C215.79 60.5937 215.72 60.2466 215.582 60.0523C215.471 59.8301 215.248 59.6635 214.915 59.5525L213.374 59.0943V56.887H225.202C228.035 56.887 230.228 57.6644 231.783 59.2193C233.338 60.7742 234.115 62.8427 234.115 65.4249C234.115 69.6176 232.088 72.3525 228.035 73.6297L232.116 81.543C232.338 81.9594 232.574 82.2649 232.824 82.4592C233.102 82.6258 233.491 82.7369 233.99 82.7924L235.49 83.0007V85.208H229.742L224.786 74.1711H219.33V81.0015C219.33 81.6957 219.455 82.1816 219.705 82.4592C219.955 82.7091 220.385 82.8618 220.996 82.9174L222.579 83.1256V85.208H213.124ZM223.495 71.2557C225.744 71.2557 227.438 70.7698 228.576 69.798C229.742 68.7985 230.325 67.3408 230.325 65.4249C230.325 63.6757 229.798 62.3013 228.743 61.3017C227.688 60.3021 226.23 59.8024 224.37 59.8024H220.538C219.733 59.8024 219.33 60.1911 219.33 60.9685V71.2557H223.495ZM26.1781 127.208V125.126L27.1776 124.917C27.7052 124.806 28.08 124.626 28.3021 124.376C28.5243 124.126 28.6353 123.668 28.6353 123.002V102.594C28.6353 102.066 28.5381 101.705 28.3438 101.511C28.1772 101.316 27.8579 101.192 27.3859 101.136L26.1781 100.969V98.887H38.2978C41.7685 98.887 44.5035 100.081 46.5026 102.469C48.5017 104.829 49.5013 108.438 49.5013 113.297C49.5013 115.713 49.0987 117.976 48.2935 120.086C47.516 122.169 46.2249 123.876 44.4202 125.209C42.6432 126.542 40.3386 127.208 37.5065 127.208H26.1781ZM37.5898 124.293C39.9776 124.293 41.949 123.432 43.5039 121.71C45.0588 119.989 45.8362 117.185 45.8362 113.297C45.8362 109.355 45.1698 106.453 43.8371 104.593C42.5321 102.733 40.5607 101.802 37.923 101.802H33.6748C33.064 101.802 32.6614 101.9 32.467 102.094C32.2726 102.288 32.1755 102.719 32.1755 103.385V122.668C32.1755 123.224 32.2171 123.612 32.3004 123.834C32.3837 124.029 32.5086 124.154 32.6752 124.209C32.8696 124.265 33.2028 124.293 33.6748 124.293H37.5898ZM53.876 127.208V125.126L54.8339 124.917C55.3615 124.806 55.7363 124.626 55.9585 124.376C56.2084 124.126 56.3333 123.668 56.3333 123.002V103.093C56.3333 102.427 56.1945 101.969 55.9168 101.719C55.6392 101.469 55.1949 101.275 54.5841 101.136L53.876 100.969V98.887H72.9095V104.843H70.4938L70.244 103.135C70.1884 102.663 70.0079 102.33 69.7025 102.136C69.4249 101.913 68.939 101.802 68.2448 101.802H61.3728C60.7619 101.802 60.3593 101.941 60.165 102.219C59.9706 102.469 59.8734 102.996 59.8734 103.801V111.631H69.6192V114.339H59.8734V122.293C59.8734 123.099 59.9706 123.64 60.165 123.918C60.3593 124.168 60.7619 124.293 61.3728 124.293H68.703C69.3971 124.293 69.883 124.195 70.1607 124.001C70.4661 123.807 70.6466 123.474 70.7021 123.002L70.952 121.252H73.3676V127.208H53.876ZM77.9454 127.208V125.126L79.2365 124.917C79.764 124.834 80.1389 124.667 80.361 124.418C80.6109 124.14 80.7358 123.668 80.7358 123.002V102.844C80.7358 102.316 80.6387 101.955 80.4443 101.761C80.2777 101.539 79.9445 101.358 79.4447 101.219L78.1536 100.928V98.887H84.2343L93.3554 118.087L102.518 98.887H108.599V100.928L107.308 101.219C106.808 101.358 106.461 101.539 106.266 101.761C106.1 101.955 106.017 102.316 106.017 102.844V123.002C106.017 123.668 106.128 124.14 106.35 124.418C106.6 124.667 106.988 124.834 107.516 124.917L108.807 125.126V127.208H99.686V125.126L100.977 124.917C101.505 124.834 101.879 124.667 102.102 124.418C102.351 124.14 102.476 123.668 102.476 123.002V106.634L94.9797 122.335H91.7311L84.276 106.634V123.002C84.276 123.668 84.387 124.14 84.6092 124.418C84.859 124.667 85.2478 124.834 85.7753 124.917L87.0664 125.126V127.208H77.9454ZM124.009 127.666C120.872 127.666 118.248 126.819 116.138 125.126C114.055 123.404 113.014 120.641 113.014 116.838V109.299C113.014 105.579 114.041 102.844 116.096 101.094C118.178 99.3173 120.816 98.4288 124.009 98.4288C127.258 98.4288 129.923 99.3173 132.006 101.094C134.088 102.844 135.129 105.579 135.129 109.299V116.838C135.129 120.641 134.06 123.404 131.922 125.126C129.812 126.819 127.174 127.666 124.009 127.666ZM124.009 124.543C126.369 124.543 128.216 123.932 129.548 122.71C130.909 121.461 131.589 119.503 131.589 116.838V109.091C131.589 106.592 130.895 104.718 129.507 103.468C128.146 102.191 126.314 101.552 124.009 101.552C121.732 101.552 119.914 102.191 118.553 103.468C117.22 104.746 116.554 106.62 116.554 109.091V116.838C116.554 119.503 117.206 121.461 118.511 122.71C119.844 123.932 121.677 124.543 124.009 124.543ZM150.482 127.666C147.317 127.666 144.693 126.861 142.61 125.251C140.528 123.64 139.487 120.947 139.487 117.171V109.466C139.487 106.939 139.973 104.857 140.944 103.218C141.944 101.552 143.263 100.345 144.901 99.595C146.567 98.8175 148.427 98.4288 150.482 98.4288C152.37 98.4288 154.078 98.6926 155.605 99.2201C157.132 99.7477 158.451 100.386 159.561 101.136C159.534 102.191 159.45 103.718 159.312 105.717L159.228 106.925H156.438L156.188 103.093C154.772 102.066 152.87 101.552 150.482 101.552C148.233 101.552 146.428 102.149 145.068 103.343C143.707 104.51 143.027 106.453 143.027 109.174V117.087C143.027 122.057 145.512 124.543 150.482 124.543C152.981 124.543 155.105 123.848 156.854 122.46H159.561V125.459C158.312 126.042 156.896 126.556 155.313 127C153.758 127.444 152.148 127.666 150.482 127.666ZM163.768 127.208V125.126L165.018 124.959C165.518 124.903 165.878 124.737 166.101 124.459C166.323 124.182 166.434 123.696 166.434 123.002V103.093C166.434 102.594 166.364 102.247 166.226 102.052C166.114 101.83 165.892 101.664 165.559 101.552L164.018 101.094V98.887H175.846C178.678 98.887 180.872 99.6644 182.427 101.219C183.982 102.774 184.759 104.843 184.759 107.425C184.759 111.618 182.732 114.352 178.678 115.63L182.76 123.543C182.982 123.959 183.218 124.265 183.468 124.459C183.746 124.626 184.134 124.737 184.634 124.792L186.134 125.001V127.208H180.386L175.43 116.171H169.974V123.002C169.974 123.696 170.099 124.182 170.349 124.459C170.599 124.709 171.029 124.862 171.64 124.917L173.223 125.126V127.208H163.768ZM174.139 113.256C176.388 113.256 178.082 112.77 179.22 111.798C180.386 110.798 180.969 109.341 180.969 107.425C180.969 105.676 180.442 104.301 179.387 103.302C178.331 102.302 176.874 101.802 175.013 101.802H171.182C170.377 101.802 169.974 102.191 169.974 102.969V113.256H174.139ZM188.46 127.208V125.209L189.626 124.959C190.182 124.848 190.584 124.695 190.834 124.501C191.084 124.279 191.278 123.959 191.417 123.543L199.039 98.887H204.411L211.575 123.543C211.714 123.987 211.894 124.307 212.117 124.501C212.366 124.695 212.755 124.848 213.283 124.959L214.532 125.209V127.208H204.828V125.209L206.536 124.917C207.202 124.779 207.535 124.418 207.535 123.834C207.535 123.418 207.188 121.96 206.494 119.461H196.498C195.832 121.71 195.499 123.154 195.499 123.793C195.499 124.154 195.568 124.418 195.707 124.584C195.846 124.751 196.082 124.862 196.415 124.917L198.206 125.209V127.208H188.46ZM201.454 101.761L197.04 116.588H205.994L201.871 101.761H201.454ZM228.126 127.666C224.961 127.666 222.337 126.861 220.254 125.251C218.172 123.64 217.131 120.947 217.131 117.171V109.466C217.131 106.939 217.617 104.857 218.588 103.218C219.588 101.552 220.907 100.345 222.545 99.595C224.211 98.8175 226.071 98.4288 228.126 98.4288C230.014 98.4288 231.722 98.6926 233.249 99.2201C234.776 99.7477 236.095 100.386 237.205 101.136C237.177 102.191 237.094 103.718 236.955 105.717L236.872 106.925H234.082L233.832 103.093C232.416 102.066 230.514 101.552 228.126 101.552C225.877 101.552 224.072 102.149 222.712 103.343C221.351 104.51 220.671 106.453 220.671 109.174V117.087C220.671 122.057 223.156 124.543 228.126 124.543C230.625 124.543 232.749 123.848 234.498 122.46H237.205V125.459C235.956 126.042 234.54 126.556 232.957 127C231.402 127.444 229.792 127.666 228.126 127.666ZM247.41 127.208V125.126L248.784 124.917C249.284 124.834 249.659 124.667 249.908 124.418C250.158 124.14 250.283 123.668 250.283 123.002V116.629L242.662 101.719L239.954 100.886V98.887H248.784V100.886L246.535 101.511L252.116 113.297L257.697 101.511L255.448 100.886V98.887H264.277V100.886L261.57 101.719L253.823 116.629V123.002C253.823 123.668 253.948 124.14 254.198 124.418C254.448 124.667 254.823 124.834 255.323 124.917L256.697 125.126V127.208H247.41Z" fill="#3904E9"/>
<path d="M156.909 44.4581C153.799 44.4581 151.259 43.6529 149.288 42.0425C147.316 40.4321 146.33 37.7388 146.33 33.9627V19.8854C146.33 19.2191 146.206 18.7609 145.956 18.511C145.706 18.2334 145.331 18.0529 144.831 17.9696L143.457 17.7613V15.6789H152.744V17.7613L151.37 17.9696C150.87 18.0529 150.495 18.2334 150.245 18.511C149.996 18.7609 149.871 19.2191 149.871 19.8854V33.8794C149.871 36.3228 150.468 38.1831 151.662 39.4603C152.855 40.7098 154.605 41.3345 156.909 41.3345C159.242 41.3345 161.005 40.7098 162.199 39.4603C163.42 38.1831 164.031 36.3228 164.031 33.8794V19.8854C164.031 19.2191 163.906 18.7609 163.656 18.511C163.406 18.2334 163.032 18.0529 162.532 17.9696L161.157 17.7613V15.6789H170.445V17.7613L169.071 17.9696C168.571 18.0529 168.196 18.2334 167.946 18.511C167.696 18.7609 167.571 19.2191 167.571 19.8854V33.9627C167.571 37.7388 166.572 40.4321 164.573 42.0425C162.601 43.6529 160.047 44.4581 156.909 44.4581ZM172.551 44V42.0009L173.717 41.751C174.272 41.6399 174.675 41.4872 174.925 41.2928C175.175 41.0707 175.369 40.7514 175.508 40.3349L183.13 15.6789H188.502L195.666 40.3349C195.805 40.7792 195.985 41.0985 196.207 41.2928C196.457 41.4872 196.846 41.6399 197.374 41.751L198.623 42.0009V44H188.919V42.0009L190.626 41.7093C191.293 41.5705 191.626 41.2095 191.626 40.6265C191.626 40.21 191.279 38.7523 190.585 36.2534H180.589C179.923 38.5024 179.59 39.9462 179.59 40.5848C179.59 40.9458 179.659 41.2095 179.798 41.3761C179.937 41.5427 180.173 41.6538 180.506 41.7093L182.297 42.0009V44H172.551ZM185.545 18.5527L181.131 33.3796H190.085L185.962 18.5527H185.545ZM201.388 44V41.9176L202.554 41.7093C203.137 41.5983 203.498 41.4178 203.637 41.1679C203.776 40.918 203.845 40.4599 203.845 39.7935V19.8854C203.845 19.2191 203.734 18.747 203.512 18.4694C203.318 18.1917 202.929 18.0251 202.346 17.9696L200.972 17.7613V15.6789H210.259V17.7613L208.885 17.9696C208.302 18.0251 207.899 18.1917 207.677 18.4694C207.483 18.747 207.385 19.2191 207.385 19.8854V39.5019C207.385 40.1406 207.497 40.5709 207.719 40.7931C207.941 40.9874 208.399 41.0846 209.093 41.0846H215.715C216.243 41.0846 216.618 40.9874 216.84 40.7931C217.09 40.5709 217.242 40.2377 217.298 39.7935L217.548 38.0442H219.963V44H201.388ZM223.9 44V41.9176L225.275 41.7093C225.775 41.626 226.149 41.4594 226.399 41.2095C226.649 40.9319 226.774 40.4599 226.774 39.7935V19.8854C226.774 19.2191 226.649 18.7609 226.399 18.511C226.149 18.2334 225.775 18.0529 225.275 17.9696L223.9 17.7613V15.6789H233.188V17.7613L231.814 17.9696C231.314 18.0529 230.939 18.2334 230.689 18.511C230.439 18.7609 230.314 19.2191 230.314 19.8854V39.7935C230.314 40.4599 230.439 40.9319 230.689 41.2095C230.939 41.4594 231.314 41.626 231.814 41.7093L233.188 41.9176V44H223.9ZM237.939 44V41.0846L252.932 18.6776H242.895C242.506 18.6776 242.201 18.7748 241.979 18.9692C241.785 19.1635 241.66 19.5106 241.604 20.0104L241.396 21.9262H238.772V15.6789H257.431V18.636L242.312 41.0013H253.307C253.724 41.0013 254.029 40.9041 254.224 40.7098C254.418 40.5154 254.543 40.1683 254.598 39.6685L254.807 37.7527H257.431V44H237.939ZM261.788 44V41.9176L262.746 41.7093C263.273 41.5983 263.648 41.4178 263.87 41.1679C264.12 40.918 264.245 40.4599 264.245 39.7935V19.8854C264.245 19.2191 264.106 18.7609 263.828 18.511C263.551 18.2611 263.107 18.0668 262.496 17.9279L261.788 17.7613V15.6789H280.821V21.6347H278.406L278.156 19.9271C278.1 19.4551 277.92 19.1219 277.614 18.9275C277.337 18.7054 276.851 18.5943 276.156 18.5943H269.284C268.674 18.5943 268.271 18.7332 268.077 19.0108C267.882 19.2607 267.785 19.7882 267.785 20.5935V28.4234H277.531V31.1306H267.785V39.0855C267.785 39.8907 267.882 40.4321 268.077 40.7098C268.271 40.9596 268.674 41.0846 269.284 41.0846H276.615C277.309 41.0846 277.795 40.9874 278.072 40.7931C278.378 40.5987 278.558 40.2655 278.614 39.7935L278.864 38.0442H281.279V44H261.788Z" fill="#3904E9"/>
</svg>
